<mxfile host="app.diagrams.net" modified="2023-10-11T18:48:53.011Z" agent="Mozilla/5.0 (Windows NT 10.0; Win64; x64) AppleWebKit/537.36 (KHTML, like Gecko) Chrome/117.0.0.0 Safari/537.36 Edg/117.0.2045.60" version="22.0.4" etag="DA9wUh0FV5GpW3b29bwB" type="github">
  <diagram name="Page-1" id="4cyCSRY7mNd3my8lSI1Z">
    <mxGraphModel>
      <root>
        <mxCell id="0" />
        <mxCell id="1" parent="0" />
      </root>
    </mxGraphModel>
  </diagram>
</mxfile>
